<svg id="visual" viewBox="0 0 900 600" width="900" height="600" xmlns="http://www.w3.org/2000/svg" xmlns:xlink="http://www.w3.org/1999/xlink" version="1.1"><rect x="0" y="0" width="900" height="600" fill="#fff"></rect><defs><linearGradient id="grad1_0" x1="33.3%" y1="0%" x2="100%" y2="100%"><stop offset="20%" stop-color="#ffffff" stop-opacity="1"></stop><stop offset="80%" stop-color="#ffffff" stop-opacity="1"></stop></linearGradient></defs><defs><linearGradient id="grad2_0" x1="0%" y1="0%" x2="66.7%" y2="100%"><stop offset="20%" stop-color="#ffffff" stop-opacity="1"></stop><stop offset="80%" stop-color="#ffffff" stop-opacity="1"></stop></linearGradient></defs><g transform="translate(900, 0)"><path d="M0 486.7C-71.8 487.8 -143.6 488.8 -186.3 449.7C-228.9 410.6 -242.3 331.3 -284.3 284.3C-326.2 237.2 -396.6 222.3 -435.1 180.2C-473.6 138.2 -480.2 69.1 -486.7 0L0 0Z" fill="#FFF1DA"></path></g><g transform="translate(0, 600)"><path d="M0 -486.7C51.5 -443.5 103.1 -400.2 155 -374.2C206.9 -348.1 259.1 -339.2 312.5 -312.5C365.9 -285.8 420.5 -241.3 449.7 -186.3C478.9 -131.2 482.8 -65.6 486.7 0L0 0Z" fill="#FFF1DA"></path></g></svg>